 
 
<svg xmlns="http://www.w3.org/2000/svg" version="1.1" xmlns:xlink="http://www.w3.org/1999/xlink" xmlns:svgjs="http://svgjs.dev/svgjs" width="128" height="128" viewBox="0 0 128 128"><g transform="matrix(0.8046875,0,0,0.8046875,12.760752631578946,18.54775650669643)"><svg viewBox="0 0 95 84" data-background-color="#31c48d" preserveAspectRatio="xMidYMid meet" height="113" width="128" xmlns="http://www.w3.org/2000/svg" xmlns:xlink="http://www.w3.org/1999/xlink"><g id="tight-bounds" transform="matrix(1,0,0,1,-0.24049999999999727,-0.011639999999999873)"><svg viewBox="0 0 95.481 84.02328" height="84.02328" width="95.481"><g><svg viewBox="0 0 95.481 84.02328" height="84.02328" width="95.481"><g><svg viewBox="0 0 95.481 84.02328" height="84.02328" width="95.481"><g id="textblocktransform"><svg viewBox="0 0 95.481 84.02328" height="84.02328" width="95.481" id="textblock"><g><svg viewBox="0 0 95.481 84.02328" height="84.02328" width="95.481"><g><svg viewBox="0 0 95.481 84.02328" height="84.02328" width="95.481"><g><svg xmlns="http://www.w3.org/2000/svg" xmlns:xlink="http://www.w3.org/1999/xlink" version="1.1" x="0" y="0" viewBox="0 6 100 88" enable-background="new 0 0 100 100" xml:space="preserve" height="84.02328" width="95.481" class="icon-icon-0" data-fill-palette-color="accent" id="icon-0"><g fill="#528265" data-fill-palette-color="accent"><path d="M87.443 45.365c-0.537-1.955-5.529-2.123-7.537-1.454C72.602 46.34 65.297 48.77 57.991 51.2L32.634 41.074l-2.676 2.854 10.852 13.03c-6.995 2.418-19.806 6.884-22.131 7.655-2.001 0.666 12.936 2.785 16.36 2.217 0 0 26.313-8.582 37.945-12.453 2.988-0.994 5.979-1.988 8.972-2.984C83.956 50.727 88.025 47.484 87.443 45.365z" fill="#000000" data-fill-palette-color="accent"></path><polygon points="14.533,55.344 12.5,57.221 17.89,63.51 25.702,60.758  " fill="#000000" data-fill-palette-color="accent"></polygon></g><path d="M94 6H6c-3.313 0-6 2.687-6 6v76c0 3.313 2.687 6 6 6h88c3.314 0 6-2.688 6-6V12C100 8.686 97.314 6 94 6zM79 10c2.205 0 4 1.794 4 4s-1.795 4-4 4-4-1.794-4-4S76.795 10 79 10zM68 10c2.205 0 4 1.794 4 4s-1.795 4-4 4-4-1.794-4-4S65.795 10 68 10zM94 88H6V22h88V88zM90 18c-2.205 0-4-1.794-4-4s1.795-4 4-4 4 1.794 4 4S92.205 18 90 18z" fill="#000000" data-fill-palette-color="accent"></path></svg></g></svg></g></svg></g></svg></g></svg></g><g></g></svg></g><defs></defs></svg><rect width="95.481" height="84.02328" fill="none" stroke="none" visibility="hidden"></rect></g></svg></g></svg>