<svg xmlns="http://www.w3.org/2000/svg" version="1.1" xmlns:xlink="http://www.w3.org/1999/xlink" xmlns:svgjs="http://svgjs.dev/svgjs" width="2000" height="1500" viewBox="0 0 2000 1500"><rect width="2000" height="1500" fill="#31c48d"></rect><g transform="matrix(0.75,0,0,0.75,249.0909328440904,396.2918316369115)"><svg viewBox="0 0 396 187" data-background-color="#31c48d" preserveAspectRatio="xMidYMid meet" height="944" width="2000" xmlns="http://www.w3.org/2000/svg" xmlns:xlink="http://www.w3.org/1999/xlink"><g id="tight-bounds" transform="matrix(1,0,0,1,0.23999379065276116,-0.07707982500346588)"><svg viewBox="0 0 395.52 187.15415965000693" height="187.15415965000693" width="395.52"><g><svg viewBox="0 0 395.52 187.15415965000693" height="187.15415965000693" width="395.52"><g transform="matrix(1,0,0,1,0,138.024136075748)"><svg viewBox="0 0 395.52 49.13002357425892" height="49.13002357425892" width="395.52"><g id="textblocktransform"><svg viewBox="0 0 395.52 49.13002357425892" height="49.13002357425892" width="395.52" id="textblock"><g><svg viewBox="0 0 395.52 49.13002357425892" height="49.13002357425892" width="395.52"><g transform="matrix(1,0,0,1,0,0)"><svg width="395.52" viewBox="1.9500000476837158 -37.599998474121094 306.7012023925781 38.099998474121094" height="49.13002357425892" data-palette-color="#c7efe0"><path d="M1.95-33.2L1.95-36.4Q1.95-36.75 2.13-36.93 2.3-37.1 2.7-37.1L2.7-37.1 30.15-37.1Q30.55-37.1 30.7-36.93 30.85-36.75 30.85-36.4L30.85-36.4 30.85-33.2Q30.85-32.6 30.15-32.6L30.15-32.6 20.25-32.6Q19.7-32.6 19.7-32.15L19.7-32.15 19.7-0.75Q19.7 0 19.05 0L19.05 0 14.35 0Q13.7 0 13.7-0.7L13.7-0.7 13.7-32.05Q13.7-32.6 13.15-32.6L13.15-32.6 2.65-32.6Q1.95-32.6 1.95-33.2L1.95-33.2ZM64.85-1.05L64.85-1.05Q65-0.65 64.82-0.33 64.65 0 64.25 0L64.25 0 59.4 0Q58.8 0 58.5-0.7L58.5-0.7 52.4-15.9Q52.15-16.5 51.15-16.5L51.15-16.5 43.85-16.5Q43.5-16.5 43.37-16.32 43.25-16.15 43.25-15.95L43.25-15.95 43.25-0.9Q43.25 0 42.3 0L42.3 0 38.05 0Q37.55 0 37.37-0.2 37.2-0.4 37.2-0.8L37.2-0.8 37.2-36.35Q37.2-37.1 37.9-37.1L37.9-37.1 52.35-37.1Q58.5-37.1 61.92-34.6 65.35-32.1 65.35-27.3L65.35-27.3Q65.35-24.55 64.3-22.58 63.25-20.6 61.62-19.38 60-18.15 58.15-17.6L58.15-17.6Q57.8-17.45 57.95-17L57.95-17 64.85-1.05ZM51.15-20.75L51.15-20.75Q55.05-20.75 57.07-22.23 59.1-23.7 59.1-26.85L59.1-26.85Q59.1-29.85 57.25-31.35 55.4-32.85 52-32.85L52-32.85 44.05-32.85Q43.25-32.85 43.25-32.25L43.25-32.25 43.25-21.45Q43.25-20.75 43.8-20.75L43.8-20.75 51.15-20.75ZM69.45 0L69.45 0Q69.09 0 68.95-0.3 68.8-0.6 68.95-1.05L68.95-1.05 81.7-36.3Q81.84-36.75 82.09-36.93 82.34-37.1 82.8-37.1L82.8-37.1 87.84-37.1Q88.8-37.1 89.09-36.25L89.09-36.25 101.75-1Q101.9-0.65 101.75-0.33 101.59 0 101.19 0L101.19 0 96.5 0Q95.84 0 95.65-0.6L95.65-0.6 92.45-9.5Q92.4-9.75 92.27-9.85 92.15-9.95 91.84-9.95L91.84-9.95 78-9.95Q77.55-9.95 77.4-9.55L77.4-9.55 74.14-0.5Q74.05-0.25 73.87-0.13 73.7 0 73.3 0L73.3 0 69.45 0ZM79.4-14.65L90.3-14.65Q90.95-14.65 90.7-15.35L90.7-15.35 85.3-30.35Q85.09-30.75 84.92-30.75 84.75-30.75 84.59-30.3L84.59-30.3 79.05-15.3Q78.8-14.65 79.4-14.65L79.4-14.65ZM132.39-37.1L132.39-37.1Q132.79-37.1 132.97-36.85 133.14-36.6 132.99-36.25L132.99-36.25 120.49-0.85Q120.24 0 119.24 0L119.24 0 114.99 0Q113.89 0 113.64-0.8L113.64-0.8 101.39-36.2Q101.29-36.6 101.47-36.85 101.64-37.1 101.99-37.1L101.99-37.1 106.69-37.1Q107.34-37.1 107.54-36.45L107.54-36.45 117.29-7.7Q117.64-6.75 117.99-7.75L117.99-7.75 127.69-36.45Q127.89-37.1 128.59-37.1L128.59-37.1 132.39-37.1ZM139.44-36.35L139.44-36.35Q139.44-37.1 140.14-37.1L140.14-37.1 163.44-37.1Q164.04-37.1 164.04-36.45L164.04-36.45 163.99-33.3Q163.99-32.55 163.24-32.55L163.24-32.55 146.24-32.55Q145.49-32.55 145.49-31.9L145.49-31.9 145.49-21.6Q145.49-20.95 146.14-20.95L146.14-20.95 158.34-20.95Q158.99-20.95 158.99-20.35L158.99-20.35 158.99-17Q158.99-16.75 158.87-16.6 158.74-16.45 158.34-16.45L158.34-16.45 146.09-16.45Q145.49-16.45 145.49-15.9L145.49-15.9 145.49-5.1Q145.49-4.55 145.99-4.55L145.99-4.55 163.94-4.55Q164.64-4.55 164.64-3.95L164.64-3.95 164.64-0.65Q164.64-0.35 164.49-0.18 164.34 0 163.94 0L163.94 0 140.29 0Q139.44 0 139.44-0.8L139.44-0.8 139.44-36.35ZM171.24-36.35L171.24-36.35Q171.24-37.1 171.94-37.1L171.94-37.1 176.64-37.1Q177.29-37.1 177.29-36.35L177.29-36.35 177.29-5.1Q177.29-4.55 177.79-4.55L177.79-4.55 194.69-4.55Q195.39-4.55 195.39-3.95L195.39-3.95 195.39-0.65Q195.39-0.35 195.21-0.18 195.04 0 194.69 0L194.69 0 172.09 0Q171.59 0 171.41-0.2 171.24-0.4 171.24-0.8L171.24-0.8 171.24-36.35ZM212.99-37.6L212.99-37.6Q215.64-37.6 218.01-36.77 220.39-35.95 222.29-34.5 224.19-33.05 225.41-31.18 226.64-29.3 226.99-27.1L226.99-27.1Q227.09-26.55 226.99-26.38 226.89-26.2 226.54-26.15L226.54-26.15 221.89-25.85Q221.59-25.8 221.49-25.95 221.39-26.1 221.29-26.4L221.29-26.4Q220.64-29.4 218.54-31.3 216.44-33.2 213.19-33.2L213.19-33.2Q208.44-33.2 205.86-29.6 203.29-26 203.29-18.6L203.29-18.6Q203.29-11.3 205.81-7.7 208.34-4.1 213.39-4.1L213.39-4.1Q216.74-4.1 219.01-5.73 221.29-7.35 222.74-11.05L222.74-11.05Q222.89-11.4 223.49-11.3L223.49-11.3 227.04-10.45Q227.19-10.4 227.34-10.25 227.49-10.1 227.39-9.6L227.39-9.6Q227.04-8.3 226.24-6.9 225.44-5.5 224.24-4.17 223.04-2.85 221.39-1.8 219.74-0.75 217.66-0.13 215.59 0.5 213.14 0.5L213.14 0.5Q208.09 0.5 204.46-1.85 200.84-4.2 198.89-8.5 196.94-12.8 196.94-18.65L196.94-18.65Q196.94-24.55 198.89-28.8 200.84-33.05 204.44-35.33 208.04-37.6 212.99-37.6L212.99-37.6ZM234.73-37.1L239.43-37.1Q240.08-37.1 240.08-36.35L240.08-36.35 240.08-0.95Q240.08-0.4 239.86-0.2 239.63 0 239.03 0L239.03 0 234.93 0Q234.38 0 234.21-0.18 234.03-0.35 234.03-0.8L234.03-0.8 234.03-36.35Q234.03-37.1 234.73-37.1L234.73-37.1ZM246.48-33.2L246.48-36.4Q246.48-36.75 246.66-36.93 246.83-37.1 247.23-37.1L247.23-37.1 274.68-37.1Q275.08-37.1 275.23-36.93 275.38-36.75 275.38-36.4L275.38-36.4 275.38-33.2Q275.38-32.6 274.68-32.6L274.68-32.6 264.78-32.6Q264.23-32.6 264.23-32.15L264.23-32.15 264.23-0.75Q264.23 0 263.58 0L263.58 0 258.88 0Q258.23 0 258.23-0.7L258.23-0.7 258.23-32.05Q258.23-32.6 257.68-32.6L257.68-32.6 247.18-32.6Q246.48-32.6 246.48-33.2L246.48-33.2ZM308.03-37.1L308.03-37.1Q308.48-37.1 308.6-36.88 308.73-36.65 308.53-36.3L308.53-36.3 296.68-16.6Q296.43-16.3 296.38-15.93 296.33-15.55 296.33-14.65L296.33-14.65 296.33-1Q296.33 0 295.23 0L295.23 0 291.18 0Q290.68 0 290.5-0.2 290.33-0.4 290.33-0.85L290.33-0.85 290.33-14.6Q290.33-15.15 290.2-15.45 290.08-15.75 289.88-16.1L289.88-16.1 277.88-36.15Q277.63-36.55 277.78-36.83 277.93-37.1 278.48-37.1L278.48-37.1 283.28-37.1Q283.83-37.1 284.03-36.95 284.23-36.8 284.48-36.4L284.48-36.4 293.18-21.35Q293.48-20.8 293.73-20.8 293.98-20.8 294.23-21.25L294.23-21.25 302.88-36.4Q303.13-36.85 303.33-36.98 303.53-37.1 304.03-37.1L304.03-37.1 308.03-37.1Z" opacity="1" transform="matrix(1,0,0,1,0,0)" fill="#c7efe0" class="wordmark-text-0" data-fill-palette-color="primary" id="text-0"></path></svg></g></svg></g></svg></g></svg></g><g transform="matrix(1,0,0,1,140.34635140744274,0)"><svg viewBox="0 0 114.8272971851145 114.8272971851145" height="114.8272971851145" width="114.8272971851145"><g><svg></svg></g><g id="icon-0"><svg viewBox="0 0 114.8272971851145 114.8272971851145" height="114.8272971851145" width="114.8272971851145"><g><path d="M0 57.414c0-31.709 25.705-57.414 57.414-57.414 31.709 0 57.414 25.705 57.413 57.414 0 31.709-25.705 57.414-57.413 57.413-31.709 0-57.414-25.705-57.414-57.413zM57.414 110.397c29.262 0 52.983-23.721 52.983-52.983 0-29.262-23.721-52.983-52.983-52.983-29.262 0-52.983 23.721-52.983 52.983 0 29.262 23.721 52.983 52.983 52.983z" data-fill-palette-color="accent" fill="#528265" stroke="transparent"></path><ellipse rx="56.83951210663168" ry="56.83951210663168" cx="57.41364859255725" cy="57.41364859255725" fill="#528265" stroke="transparent" stroke-width="0" fill-opacity="1" data-fill-palette-color="accent"></ellipse></g><g transform="matrix(1,0,0,1,24.660555404682967,28.590926587227877)"><svg viewBox="0 0 65.50618637574857 57.64544401065875" height="57.64544401065875" width="65.50618637574857"><g><svg xmlns="http://www.w3.org/2000/svg" xmlns:xlink="http://www.w3.org/1999/xlink" version="1.1" x="0" y="0" viewBox="0 6 100 88" enable-background="new 0 0 100 100" xml:space="preserve" height="57.64544401065875" width="65.50618637574857" class="icon-s-0" data-fill-palette-color="quaternary" id="s-0"><g fill="#31c48d" data-fill-palette-color="quaternary"><path d="M87.443 45.365c-0.537-1.955-5.529-2.123-7.537-1.454C72.602 46.34 65.297 48.77 57.991 51.2L32.634 41.074l-2.676 2.854 10.852 13.03c-6.995 2.418-19.806 6.884-22.131 7.655-2.001 0.666 12.936 2.785 16.36 2.217 0 0 26.313-8.582 37.945-12.453 2.988-0.994 5.979-1.988 8.972-2.984C83.956 50.727 88.025 47.484 87.443 45.365z" fill="#31c48d" data-fill-palette-color="quaternary"></path><polygon points="14.533,55.344 12.5,57.221 17.89,63.51 25.702,60.758  " fill="#31c48d" data-fill-palette-color="quaternary"></polygon></g><path d="M94 6H6c-3.313 0-6 2.687-6 6v76c0 3.313 2.687 6 6 6h88c3.314 0 6-2.688 6-6V12C100 8.686 97.314 6 94 6zM79 10c2.205 0 4 1.794 4 4s-1.795 4-4 4-4-1.794-4-4S76.795 10 79 10zM68 10c2.205 0 4 1.794 4 4s-1.795 4-4 4-4-1.794-4-4S65.795 10 68 10zM94 88H6V22h88V88zM90 18c-2.205 0-4-1.794-4-4s1.795-4 4-4 4 1.794 4 4S92.205 18 90 18z" fill="#31c48d" data-fill-palette-color="quaternary"></path></svg></g></svg></g></svg></g></svg></g><g></g></svg></g><defs></defs></svg><rect width="395.52" height="187.15415965000693" fill="none" stroke="none" visibility="hidden"></rect></g></svg></g></svg>